<svg xmlns="http://www.w3.org/2000/svg" width="35.438" height="29.986" viewBox="0 0 35.438 29.986"><g transform="translate(0 -36.545)"><g transform="translate(0 36.545)"><path d="M12.267,50.175H7.5A2.036,2.036,0,0,1,5.452,48.13v-.681a5.253,5.253,0,0,1,1.6-3.855A5.254,5.254,0,0,1,10.9,42h1.363a1.382,1.382,0,0,0,1.363-1.363V37.908a1.382,1.382,0,0,0-1.363-1.363H10.9a10.626,10.626,0,0,0-4.227.863A10.8,10.8,0,0,0,.863,43.222,10.621,10.621,0,0,0,0,47.449V62.442a3.944,3.944,0,0,0,1.192,2.9,3.944,3.944,0,0,0,2.9,1.192h8.178a4.071,4.071,0,0,0,4.089-4.089V54.264a4.072,4.072,0,0,0-4.089-4.089Z" transform="translate(0 -36.545)" fill="#fff"/><path d="M270.984,51.368a3.943,3.943,0,0,0-2.9-1.192h-4.771a2.036,2.036,0,0,1-2.044-2.045v-.681A5.453,5.453,0,0,1,266.725,42h1.363a1.382,1.382,0,0,0,1.363-1.363V37.908a1.382,1.382,0,0,0-1.363-1.363h-1.363a10.629,10.629,0,0,0-4.228.863,10.8,10.8,0,0,0-5.814,5.814,10.624,10.624,0,0,0-.863,4.228V62.442a4.072,4.072,0,0,0,4.089,4.089h8.178a4.071,4.071,0,0,0,4.089-4.089V54.264A3.943,3.943,0,0,0,270.984,51.368Z" transform="translate(-236.737 -36.545)" fill="#fff"/></g></g></svg>